name rise38.3101peak57.3503fall81.6963.mot
datacolumns 19
datarows 30
range 2.03832900000000 2.08666100000000
endheader
time	ground_force1_vx	ground_force1_vy	ground_force1_vz	ground_force1_px	ground_force1_py	ground_force1_pz	ground_force2_vx	ground_force2_vy	ground_force2_vz	ground_force2_px	ground_force2_py	ground_force2_pz	ground_torque1_x	ground_torque1_y	ground_torque1_z	ground_torque2_x	ground_torque2_y	ground_torque2_z	
2.03832900000000	62.32392800000000	738.85553500000003	45.70342300000000	0.35460400000000	0.00000000000000	0.10282800000000	0.35373600000000	6.78351900000000	0.86663200000000	0.00000000000000	0.00000000000000	0.00000000000000	0.00000000000000	19.29131900000000	0.00000000000000	0.00000000000000	0.10136400000000	0.00000000000000	
2.03999800000000	61.92442300000000	742.55923700000005	46.08300500000000	0.35413900000000	0.00000000000000	0.10278300000000	0.41500100000000	3.32164400000000	0.48340600000000	0.00000000000000	0.00000000000000	0.00000000000000	0.00000000000000	19.56480300000000	0.00000000000000	0.00000000000000	0.08097100000000	0.00000000000000	
2.04166800000000	61.52295200000000	746.13789299999996	46.45901300000000	0.35369800000000	0.00000000000000	0.10273700000000	0.00000000000000	0.00000000000000	0.00000000000000	0.00000000000000	0.00000000000000	0.00000000000000	0.00000000000000	19.83742500000000	0.00000000000000	0.00000000000000	0.00000000000000	0.00000000000000	
2.04333500000000	61.11969000000000	749.58786099999998	46.83074600000000	0.35328000000000	0.00000000000000	0.10269000000000	0.00000000000000	0.00000000000000	0.00000000000000	0.00000000000000	0.00000000000000	0.00000000000000	0.00000000000000	20.10868700000000	0.00000000000000	0.00000000000000	0.00000000000000	0.00000000000000	
2.04500100000000	60.71476600000000	752.90565100000003	47.19744800000000	0.35288300000000	0.00000000000000	0.10264100000000	0.00000000000000	0.00000000000000	0.00000000000000	0.00000000000000	0.00000000000000	0.00000000000000	0.00000000000000	20.37805200000000	0.00000000000000	0.00000000000000	0.00000000000000	0.00000000000000	
2.04666200000000	60.30825900000000	756.08794399999999	47.55831700000000	0.35250500000000	0.00000000000000	0.10259100000000	0.00000000000000	0.00000000000000	0.00000000000000	0.00000000000000	0.00000000000000	0.00000000000000	0.00000000000000	20.64494900000000	0.00000000000000	0.00000000000000	0.00000000000000	0.00000000000000	
2.04832700000000	59.90020800000000	759.13160500000004	47.91251000000000	0.35214300000000	0.00000000000000	0.10253900000000	0.00000000000000	0.00000000000000	0.00000000000000	0.00000000000000	0.00000000000000	0.00000000000000	0.00000000000000	20.90878200000000	0.00000000000000	0.00000000000000	0.00000000000000	0.00000000000000	
2.04999700000000	59.49061300000000	762.03369999999995	48.25914900000000	0.35179600000000	0.00000000000000	0.10248600000000	0.00000000000000	0.00000000000000	0.00000000000000	0.00000000000000	0.00000000000000	0.00000000000000	0.00000000000000	21.16892600000000	0.00000000000000	0.00000000000000	0.00000000000000	0.00000000000000	
2.05166500000000	59.07944100000000	764.79151000000002	48.59733300000000	0.35146100000000	0.00000000000000	0.10243200000000	0.00000000000000	0.00000000000000	0.00000000000000	0.00000000000000	0.00000000000000	0.00000000000000	0.00000000000000	21.42473900000000	0.00000000000000	0.00000000000000	0.00000000000000	0.00000000000000	
2.05333100000000	58.66662700000000	767.40254300000004	48.92613900000000	0.35113700000000	0.00000000000000	0.10237700000000	0.00000000000000	0.00000000000000	0.00000000000000	0.00000000000000	0.00000000000000	0.00000000000000	0.00000000000000	21.67556100000000	0.00000000000000	0.00000000000000	0.00000000000000	0.00000000000000	
2.05499800000000	58.25208200000000	769.86455100000001	49.24463400000000	0.35082000000000	0.00000000000000	0.10232100000000	0.00000000000000	0.00000000000000	0.00000000000000	0.00000000000000	0.00000000000000	0.00000000000000	0.00000000000000	21.92072400000000	0.00000000000000	0.00000000000000	0.00000000000000	0.00000000000000	
2.05666800000000	57.83569500000000	772.17553499999997	49.55188200000000	0.35051000000000	0.00000000000000	0.10226300000000	0.00000000000000	0.00000000000000	0.00000000000000	0.00000000000000	0.00000000000000	0.00000000000000	0.00000000000000	22.15955200000000	0.00000000000000	0.00000000000000	0.00000000000000	0.00000000000000	
2.05833300000000	57.41734000000000	774.33376199999998	49.84694800000000	0.35020300000000	0.00000000000000	0.10220500000000	0.00000000000000	0.00000000000000	0.00000000000000	0.00000000000000	0.00000000000000	0.00000000000000	0.00000000000000	22.39136600000000	0.00000000000000	0.00000000000000	0.00000000000000	0.00000000000000	
2.05999500000000	56.99687500000000	776.33776699999999	50.12890900000000	0.34989700000000	0.00000000000000	0.10214500000000	0.00000000000000	0.00000000000000	0.00000000000000	0.00000000000000	0.00000000000000	0.00000000000000	0.00000000000000	22.61549500000000	0.00000000000000	0.00000000000000	0.00000000000000	0.00000000000000	
2.06166700000000	56.57415300000000	778.18637000000001	50.39686200000000	0.34959000000000	0.00000000000000	0.10208400000000	0.00000000000000	0.00000000000000	0.00000000000000	0.00000000000000	0.00000000000000	0.00000000000000	0.00000000000000	22.83127000000000	0.00000000000000	0.00000000000000	0.00000000000000	0.00000000000000	
2.06333200000000	56.14901900000000	779.87867400000005	50.64992400000000	0.34928100000000	0.00000000000000	0.10202300000000	0.00000000000000	0.00000000000000	0.00000000000000	0.00000000000000	0.00000000000000	0.00000000000000	0.00000000000000	23.03804000000000	0.00000000000000	0.00000000000000	0.00000000000000	0.00000000000000	
2.06499400000000	55.72132200000000	781.41407800000002	50.88724900000000	0.34896600000000	0.00000000000000	0.10196100000000	0.00000000000000	0.00000000000000	0.00000000000000	0.00000000000000	0.00000000000000	0.00000000000000	0.00000000000000	23.23516600000000	0.00000000000000	0.00000000000000	0.00000000000000	0.00000000000000	
2.06666300000000	55.29090900000000	782.79227500000002	51.10802500000000	0.34864400000000	0.00000000000000	0.10189800000000	0.00000000000000	0.00000000000000	0.00000000000000	0.00000000000000	0.00000000000000	0.00000000000000	0.00000000000000	23.42203600000000	0.00000000000000	0.00000000000000	0.00000000000000	0.00000000000000	
2.06833000000000	54.85763800000000	784.01326200000005	51.31148500000000	0.34831200000000	0.00000000000000	0.10183400000000	0.00000000000000	0.00000000000000	0.00000000000000	0.00000000000000	0.00000000000000	0.00000000000000	0.00000000000000	23.59805800000000	0.00000000000000	0.00000000000000	0.00000000000000	0.00000000000000	
2.06999500000000	54.42137600000000	785.07733599999995	51.49691200000000	0.34796800000000	0.00000000000000	0.10176900000000	0.00000000000000	0.00000000000000	0.00000000000000	0.00000000000000	0.00000000000000	0.00000000000000	0.00000000000000	23.76267300000000	0.00000000000000	0.00000000000000	0.00000000000000	0.00000000000000	
2.07166000000000	53.98200100000000	785.98509799999999	51.66364500000000	0.34761100000000	0.00000000000000	0.10170400000000	0.00000000000000	0.00000000000000	0.00000000000000	0.00000000000000	0.00000000000000	0.00000000000000	0.00000000000000	23.91535500000000	0.00000000000000	0.00000000000000	0.00000000000000	0.00000000000000	
2.07333000000000	53.53941100000000	786.73745299999996	51.81108000000000	0.34723800000000	0.00000000000000	0.10163800000000	0.00000000000000	0.00000000000000	0.00000000000000	0.00000000000000	0.00000000000000	0.00000000000000	0.00000000000000	24.05561400000000	0.00000000000000	0.00000000000000	0.00000000000000	0.00000000000000	
2.07499300000000	53.09352000000000	787.33560599999998	51.93867900000000	0.34684800000000	0.00000000000000	0.10157200000000	0.00000000000000	0.00000000000000	0.00000000000000	0.00000000000000	0.00000000000000	0.00000000000000	0.00000000000000	24.18300000000000	0.00000000000000	0.00000000000000	0.00000000000000	0.00000000000000	
2.07666300000000	52.64426300000000	787.78106200000002	52.04597200000000	0.34643800000000	0.00000000000000	0.10150600000000	0.00000000000000	0.00000000000000	0.00000000000000	0.00000000000000	0.00000000000000	0.00000000000000	0.00000000000000	24.29710900000000	0.00000000000000	0.00000000000000	0.00000000000000	0.00000000000000	
2.07833000000000	52.19160000000000	788.07561999999996	52.13255700000000	0.34600600000000	0.00000000000000	0.10143800000000	0.00000000000000	0.00000000000000	0.00000000000000	0.00000000000000	0.00000000000000	0.00000000000000	0.00000000000000	24.39757900000000	0.00000000000000	0.00000000000000	0.00000000000000	0.00000000000000	
2.07999500000000	51.73551500000000	788.22136799999998	52.19811000000000	0.34555200000000	0.00000000000000	0.10137100000000	0.00000000000000	0.00000000000000	0.00000000000000	0.00000000000000	0.00000000000000	0.00000000000000	0.00000000000000	24.48409900000000	0.00000000000000	0.00000000000000	0.00000000000000	0.00000000000000	
2.08166100000000	51.27601800000000	788.22068000000002	52.24238000000000	0.34507300000000	0.00000000000000	0.10130300000000	0.00000000000000	0.00000000000000	0.00000000000000	0.00000000000000	0.00000000000000	0.00000000000000	0.00000000000000	24.55640800000000	0.00000000000000	0.00000000000000	0.00000000000000	0.00000000000000	
2.08333000000000	50.81314600000000	788.07620299999996	52.26519500000000	0.34456800000000	0.00000000000000	0.10123600000000	0.00000000000000	0.00000000000000	0.00000000000000	0.00000000000000	0.00000000000000	0.00000000000000	0.00000000000000	24.61429800000000	0.00000000000000	0.00000000000000	0.00000000000000	0.00000000000000	
2.08500000000000	50.34696700000000	787.79085699999996	52.26646000000000	0.34403600000000	0.00000000000000	0.10116800000000	0.00000000000000	0.00000000000000	0.00000000000000	0.00000000000000	0.00000000000000	0.00000000000000	0.00000000000000	24.65761100000000	0.00000000000000	0.00000000000000	0.00000000000000	0.00000000000000	
2.08666100000000	49.87757400000000	787.36781699999995	52.24616200000000	0.34347400000000	0.00000000000000	0.10110000000000	0.00000000000000	0.00000000000000	0.00000000000000	0.00000000000000	0.00000000000000	0.00000000000000	0.00000000000000	24.68624900000000	0.00000000000000	0.00000000000000	0.00000000000000	0.00000000000000	
